<?xml version="1.0" standalone="no"?>
<!DOCTYPE svg PUBLIC "-//W3C//DTD SVG 1.1//EN" "http://www.w3.org/Graphics/SVG/1.1/DTD/svg11.dtd" >
<svg xmlns="http://www.w3.org/2000/svg">
<metadata></metadata>
<defs>
<font id="tinkertoyregular" horiz-adv-x="751" >
<font-face units-per-em="2048" ascent="1638" descent="-410" />
<missing-glyph horiz-adv-x="534" />
<glyph horiz-adv-x="2048" />
<glyph horiz-adv-x="2048" />
<glyph unicode="&#xd;" horiz-adv-x="534" />
<glyph unicode=" "  horiz-adv-x="534" />
<glyph unicode="&#x09;" horiz-adv-x="534" />
<glyph unicode="&#xa0;" horiz-adv-x="534" />
<glyph unicode="!" horiz-adv-x="442" d="M100 418q0 86 103 131v829q-92 41 -92 131q0 49 41 87t88 38q61 0 98 -47q29 -39 29 -82q0 -37 -13.5 -58.5t-60.5 -66.5v-841q66 -55 65 -121q0 -55 -35.5 -90t-89.5 -35q-53 0 -93 39t-40 86zM111 92q0 51 38.5 90t90.5 39q61 0 98 -49q29 -39 29 -80q0 -61 -48 -98 q-39 -31 -79 -31q-61 0 -101 49q-29 39 -28 80z" />
<glyph unicode="&#x22;" d="M18 1501q0 51 32 87t91 36q55 0 94 -39t39 -84q0 -8 -19 -47t-34 -55v-348q0 -25 -20.5 -46.5t-44.5 -21.5q-53 0 -54 35q0 16 13.5 46t13.5 34v264q-63 39 -78 53q-33 33 -33 86zM459 1505q0 51 39 90t90 39q49 0 89 -41t40 -84q0 -76 -90 -129q8 -115 4 -348 q-4 -20 -25.5 -34.5t-40.5 -14.5q-63 0 -63 35q0 16 15 49t15 41v281q-74 55 -73 116z" />
<glyph unicode="#" horiz-adv-x="1366" d="M8 510q0 49 45 86t88 37q59 0 86 -39t56 -80h104l145 526q-10 6 -55 7q-23 0 -49 -3q-63 -72 -121 -71q-123 0 -123 119q0 63 37 101t86 38q86 0 131 -111h115q72 213 72 262q0 2 -28 31t-28 78q0 45 38 85t91 40q49 0 88 -39t39 -86q0 -51 -30 -84q-8 -10 -43 -24.5 t-43 -30.5q-20 -41 -35 -111q-10 -57 -23 -115q6 -8 287 -8q66 176 68 264q2 4 -8.5 19.5t-13.5 28t-3 24.5q0 53 39 89t90 36q61 0 95 -36t34 -87q0 -53 -39 -88q-45 -37 -119 -35q-2 -14 -45 -207q12 -6 56 -6q39 0 49 2q41 109 131 109q57 0 94 -49q29 -39 29 -84 q0 -57 -36 -91t-87 -34q-76 0 -131 74h-123l-146 -527q10 -6 60 -6q51 0 90 41t98 41q53 0 91 -39t38 -84q0 -51 -46 -92t-83 -41q-72 0 -135 102h-151q-72 -215 -72 -264q0 -10 22.5 -26.5t28.5 -24.5q23 -33 23 -68q0 -53 -41 -87.5t-88 -34.5q-129 0 -129 122q0 51 26 78 q8 8 72 53q59 195 59 220v30h-286q-82 -291 -82 -303q0 -8 23.5 -49t23.5 -55q0 -53 -49 -92q-41 -33 -80 -33q-61 0 -99 49q-31 39 -30 80q0 55 34 84q45 27 93 51q33 109 65 238v24q-12 6 -45 6q-47 0 -81 -31.5t-81 -31.5q-51 0 -92 42t-41 91zM469 516h309l148 528h-318 z" />
<glyph unicode="$" horiz-adv-x="1103" d="M37 326q0 55 37 90t82 35q55 0 97 -39t42 -93q0 -39 -29 -75q100 -78 154 -80h86v616q-137 -92 -221 -92q-115 0 -170 100q-41 74 -41 177q0 178 129 307q113 113 348 203q-72 72 -76 75q-25 33 -24 74q0 49 39.5 89t82.5 40q51 0 92.5 -37t41.5 -86q0 -70 -101 -155 q47 -8 176 -37q104 -25 117 -25q10 0 29.5 5t29.5 5q51 0 92.5 -39t41.5 -90q0 -61 -50 -98q-41 -31 -88 -31q-129 0 -131 160q-55 43 -94 43h-123v-405q41 0 105.5 23.5t109.5 23.5q135 0 201 -117q51 -90 51 -227q0 -197 -106 -357q-129 -195 -363 -233v-125 q94 -59 94 -129q0 -55 -38.5 -94t-94.5 -39q-53 0 -92 47q-33 41 -33 80q0 57 74 127v123q-477 82 -477 260zM184 946q0 -166 127 -166q78 1 201 105v465q-154 -53 -244 -172q-84 -111 -84 -232zM608 166q186 78 287 223q88 130 88 277q0 92 -35 157q-47 94 -149 95 q-70 0 -105 -21q-55 -35 -86 -45v-686z" />
<glyph unicode="%" horiz-adv-x="1263" d="M82 1217q0 104 76 204q74 80 145 162q31 33 88 33q70 0 125 -105q43 -87 43 -153q0 -115 -103.5 -226.5t-211.5 -111.5q-84 0 -129 78q-33 55 -33 119zM174 1221q0 -82 59 -82q123 0 234 227q-29 -8 -72 -8q-37 0 -61 14q-16 10 -64 51q-96 -96 -96 -202zM221 18 q0 102 139 129q6 10 29 70q143 381 416 1147q4 16 -10.5 51t-14.5 51q0 37 23.5 77t62.5 50q14 4 43 4q59 0 94 -35.5t35 -88.5q0 -55 -39 -93q-12 -10 -42.5 -21t-38.5 -22q-16 -14 -29 -55q-10 -33 -21.5 -65.5t-216.5 -550.5q-129 -330 -198 -553q-4 -8 11 -57.5t9 -69.5 q-8 -45 -55 -74q-37 -23 -70 -23q-61 0 -98 50q-29 39 -29 79zM754 211q0 246 297 305q4 0 36.5 21.5t59.5 21.5q53 0 91 -38t38 -85q0 -10 -9.5 -31.5t-6.5 -31.5q6 -31 6 -62q0 -137 -105.5 -242.5t-224.5 -105.5q-102 0 -152 100q-31 66 -30 148zM844 178 q0 -123 102 -123q74 0 148.5 77t97.5 169q-55 -2 -112.5 40t-63.5 99q-80 -49 -126 -123.5t-46 -138.5z" />
<glyph unicode="&#x26;" horiz-adv-x="1447" d="M92 377q0 176 92 344q113 207 322 295q-82 121 -103 162q-37 72 -36 139q0 123 112 178q80 39 195 39q111 0 186 -33q104 -45 105 -143q0 -207 -332 -381l362 -537q66 86 125 207q-63 47 -63 119q0 53 47 92q41 33 80 33q61 0 98 -49q31 -37 31 -80q0 -57 -45 -90 q-70 -49 -74 -56q-8 -33 -33 -100q-10 -20 -61 -90q-43 -59 -43 -72q0 -25 123 -198q35 39 69 77q33 33 78 33q53 0 88 -44t35 -85q0 -47 -39 -88t-80 -41q-10 0 -35.5 9.5t-38.5 9.5q-12 0 -47 -15q-45 -20 -51 -20l-182 266q-309 -295 -569 -295q-174 0 -256 150 q-59 109 -60 264zM166 362q0 -117 45 -198q63 -119 197 -119q111 0 266.5 91t261.5 216l-389 594q-197 -104 -299 -282q-82 -147 -82 -302zM440 1346q0 -53 46 -141.5t106 -147.5q262 172 262 293q0 68 -88 86q-29 6 -123 6q-98 0 -125 -6q-78 -18 -78 -90z" />
<glyph unicode="'" horiz-adv-x="378" d="M55 1487q0 49 40 89t93 40t88 -45t35 -84q0 -61 -92 -135v-320q2 -18 -20.5 -33.5t-38.5 -15.5q-33 0 -56 29q-6 23 -6 37q0 20 15.5 26t15.5 15v280q-74 55 -74 117z" />
<glyph unicode="(" horiz-adv-x="731" d="M184 584q0 602 310 919q2 14 4 45q4 39 47 72t76 33q53 0 93 -41t40 -92q0 -49 -39 -82t-86 -33q-10 0 -33 4t-31 4q-31 0 -73 -61q-207 -303 -207 -797q0 -131 30 -330q10 -76 54 -200q25 -70 94 -211q90 -180 125 -181q10 0 17 4.5t20 4.5q59 0 98 -50q31 -38 31 -79 q0 -55 -49 -95q-41 -33 -84 -32q-63 0 -86 54t-41 114q-8 18 -72 109t-80 128q-158 379 -158 793z" />
<glyph unicode=")" horiz-adv-x="671" d="M37 1534q0 49 39 88t90 39q57 0 88 -49q25 -45 49 -90q53 -61 152 -193q188 -298 188 -708q0 -250 -90 -576q-100 -365 -240 -520q-6 -23 -22 -74q-10 -23 -43 -40t-60 -17q-55 0 -94 39t-39 94q0 59 51 92q37 23 78 23q8 0 31 -4.5t33 -4.5q43 0 124 161t124 407 q37 213 36 424q0 618 -280 817q-53 -37 -92 -37q-55 0 -92 47q-31 41 -31 82z" />
<glyph unicode="*" horiz-adv-x="946" d="M-18 1139q0 51 39.5 90t84.5 39q10 0 65.5 -23.5t68.5 -23.5q76 0 174 34q-10 20 -46 52t-51 32q-12 0 -39.5 -8t-37.5 -8q-59 0 -99.5 37t-40.5 90q0 63 50 98q39 31 83 31q78 0 105 -70q10 -53 22 -108q6 -18 84 -98q39 125 39 198q0 6 -12 34t-12 40q0 51 40 92t89 41 q61 0 98 -49q31 -39 31 -84q0 -111 -131 -127q-88 -88 -97 -172q98 33 146 65q6 4 43 48q31 37 51 41q8 2 33 2q61 0 98 -50q31 -38 31 -77q0 -55 -49 -91q-41 -31 -80 -30q-37 0 -79 32.5t-44 32.5q-59 0 -135 -16q117 -123 143 -123q8 0 36 9t42 9q47 0 88 -38.5t41 -83.5 q0 -53 -43 -93.5t-90 -40.5q-51 0 -84 31q-25 25 -31 75t-12 62q-16 31 -64 76q-61 59 -75 78q-51 -121 -52 -147q0 -12 18.5 -51.5t18.5 -49.5q0 -57 -47 -96q-39 -33 -82 -33q-59 0 -98 49q-29 39 -29 80q0 61 49 101q45 33 101 28q4 6 80 123q-6 4 -19 4q-53 0 -155 -53 q2 -59 -37 -99t-92 -40q-61 0 -99 49q-31 41 -30 80z" />
<glyph unicode="+" horiz-adv-x="1130" d="M27 532q0 59 39 97q33 33 86 33q63 0 139 -111h278v342q-74 70 -73 127q0 49 41 88t84 39q51 0 92 -37t41 -86q0 -72 -76 -131v-340h260q53 98 141 98q53 0 88 -39t35 -84q0 -53 -38 -93t-85 -40q-23 0 -64.5 21.5t-58.5 44.5h-276v-307q92 -55 92 -127q0 -57 -49 -97 q-41 -31 -84 -30q-57 0 -91 38.5t-34 88.5q0 43 8 57q2 4 47 59v316h-305q-51 -55 -112 -56q-55 0 -90 38t-35 91z" />
<glyph unicode="," horiz-adv-x="518" d="M184 82q0 45 29 88q35 51 86 51q72 0 113 -69q28 -50 28 -97q0 -84 -57 -182q-66 -113 -150 -113q-29 0 -40 13q0 27 28 34q49 14 55 21q53 33 72 88q10 47 21 94q-20 0 -58.5 -9t-48.5 -9q-78 0 -78 90z" />
<glyph unicode="-" d="M63 614q0 49 41 89t84 40q45 0 83 -31.5t55 -31.5q127 0 174 35q12 8 47 67q20 35 82 35q55 0 92 -47q33 -39 33 -86q0 -55 -40 -90t-89 -35q-43 0 -77 27.5t-67 27.5q-53 0 -153 -20q-55 -106 -140 -107q-53 0 -90 48q-35 41 -35 79z" />
<glyph unicode="." horiz-adv-x="440" d="M129 115q0 55 29 104q37 55 94 55q47 0 71.5 -36.5t24.5 -85.5q0 -61 -22 -105q-27 -55 -82 -55q-53 0 -84 37t-31 86z" />
<glyph unicode="/" horiz-adv-x="763" d="M0 23q0 109 131 135q12 29 92 252q113 307 324 927q6 14 -3 37t-18 43q-4 14 -4 29q0 51 42 92t87 41q61 0 99 -47q30 -39 30 -82q0 -78 -75 -117q-14 -6 -56 -14q-16 -37 -92 -252q-113 -305 -326 -926q-4 -14 5.5 -36.5t15.5 -41t6 -36.5q0 -51 -40 -89t-89 -38t-89 40 t-40 83z" />
<glyph unicode="0" horiz-adv-x="1392" d="M82 510q0 190 78 412q92 262 250 419q188 193 440 193q55 0 129 -14q29 -4 96.5 -37t77.5 -33t10 5t13 5q18 0 55 -21.5t43 -38t16 -34.5q-2 -27 6 -74q55 -135 67.5 -190.5t12.5 -155.5q0 -365 -231 -659q-254 -324 -635 -324q-231 0 -342 187q-86 143 -86 360zM193 510 q0 -176 63 -287q84 -150 272 -149q324 0 535 286q186 253 186 558q0 162 -57 270q-31 8 -92 35q-31 18 -45.5 63t-7.5 80q-137 47 -203 47q-307 0 -500 -350q-152 -279 -151 -553z" />
<glyph unicode="1" horiz-adv-x="579" d="M-18 1128q0 43 6 58q16 35 80 67q25 -4 71 7q4 2 135 137q111 119 166 119q39 0 39 -29q0 -14 -10 -35l-10 -22v-1250q49 -49 57 -61q16 -25 16 -64q0 -61 -44 -95t-89 -34q-61 0 -96 49q-29 39 -29 80q0 47 23 76q49 61 51 68l-6 1124q-57 -55 -111 -125q8 -29 9 -55 q0 -61 -39 -101.5t-90 -40.5q-61 0 -99 48q-31 39 -30 79z" />
<glyph unicode="2" horiz-adv-x="1249" d="M45 1087q0 51 57 103q23 2 54 22q92 184 237 261q115 61 291 61q174 0 297 -80q147 -96 147 -278q0 -127 -59 -219.5t-205 -188.5q-121 -78 -241 -156q-166 -125 -385 -489h737q23 162 141 162q53 0 88 -39t35 -86q0 -41 -22 -76q-27 -23 -62 -74l-801 -10 q-111 -18 -180 -18q-23 0 -63 20v57q0 -2 14 66q37 170 199 330q94 94 331 264q231 166 326 262q57 59 57 180q0 281 -387 281q-106 0 -172 -29q-106 -43 -180 -172l-20 -24q-12 -14 -13 -27q0 -12 18.5 -51t18.5 -52q0 -47 -40 -90t-89 -43q-57 0 -96 50q-33 39 -33 83z " />
<glyph unicode="3" horiz-adv-x="1288" d="M0 377q0 55 49 94q41 35 84 35q55 0 90 -38t35 -87q0 -45 -14 -68q-10 -14 -40 -38.5t-30 -34.5q0 -68 100 -131q76 -47 117 -52q20 -2 72 -2q264 0 467 138q246 166 246 454q0 150 -82 238t-232 88q-96 0 -203 -49q-55 -27 -157 -95q-78 -49 -103 -49q-59 0 -59 56 q0 43 42 68.5t87 51.5q109 86 254 228q156 154 231 254h-696v-82q41 -14 65.5 -54t24.5 -77q0 -55 -40 -89t-87 -34q-59 0 -94 39t-35 90q0 43 29 71.5t33 43.5q-2 53 24 157q14 31 58 31h845q10 -6 29 -23v-30q0 -61 -184 -238q-150 -143 -209 -182q33 -12 86 -2q51 8 98 8 q190 0 291 -139q84 -117 84 -295q0 -354 -258 -529q-209 -141 -537 -141q-156 0 -243 45q-125 68 -168 244q-12 14 -39 43q-31 41 -31 82z" />
<glyph unicode="4" horiz-adv-x="1374" d="M-55 455q0 123 168 125q279 344 673 839q-6 23 -6 47q0 59 29 101q35 49 96 49q53 0 93 -41t40 -92q0 -41 -22 -66q-31 -29 -62 -55v-713q6 -6 19 -6q23 0 176 29q49 66 55 71q31 29 76 29q55 0 92 -49q33 -41 33 -80q0 -51 -37 -90t-88 -39q-10 0 -58 22.5t-61 22.5 q-10 0 -200 -27q-6 -6 -7 -397q25 -37 47 -74q18 -29 19 -61q0 -61 -49 -98q-39 -31 -84 -31q-57 0 -94 49q-31 39 -31 80q0 84 84 127v389q-254 -31 -637 -88q-27 -33 -53 -68q-37 -39 -86 -38q-63 0 -99 47q-27 39 -26 86zM193 516l649 111v712z" />
<glyph unicode="5" horiz-adv-x="1259" d="M18 233q0 47 40 90.5t89 43.5t93 -50q35 -45 34 -84q0 -25 -36 -98q127 -90 276 -90q223 0 424 164q219 178 219 416q0 170 -108 268q-100 90 -254 90q-137 0 -285 -86q-78 -45 -221 -160q-106 -86 -142 -86q-55 0 -41 115l31 496q0 12 -27.5 71.5t-27.5 71.5q0 49 41 89 t84 40q27 0 71 -27.5t80 -27.5q51 0 240 10q242 16 352 35q29 23 90 61q10 4 29 4q55 0 94 -39t39 -90q0 -63 -47 -98q-39 -31 -86 -31q-51 0 -94 50.5t-39 50.5q-43 0 -240 -17q-244 -20 -342 -41q-14 -4 -47 -41q-39 -43 -57 -55q-10 -127 -39 -383l6 -70q291 231 586 232 q195 0 315 -99q131 -106 131 -296q0 -305 -233 -512q-217 -195 -498 -195q-209 0 -371 143q-23 4 -71 25q-57 37 -58 110z" />
<glyph unicode="6" horiz-adv-x="1419" d="M74 299q0 39 51 111q-31 168 -19 292q33 324 265 590q244 279 534 279q109 0 201 -46t84 -46q8 0 29.5 9t33.5 9q53 0 90 -49q33 -41 33 -80q0 -61 -49 -98q-39 -31 -78 -31q-86 0 -116 86q-2 31 -7 90q-117 53 -180 53q-207 0 -393 -161q-160 -139 -264 -355 q-96 -199 -96 -346q0 -20 14 -96q14 -84 29 -125q379 598 802 598q166 0 262 -86q105 -90 105 -254q0 -274 -260 -481q-233 -188 -479 -189q-141 0 -242 58q-33 18 -105 86q-61 57 -71 57q-8 0 -20.5 -4t-24.5 -4q-57 0 -93 45t-36 88zM322 303q12 -2 12 -22q0 -18 -6 -48 q139 -170 342 -170q195 0 401 152q242 177 242 410q0 117 -83 200.5t-202 83.5q-162 0 -383 -178q-205 -164 -321 -358q0 -10 4 -28.5t4 -29.5z" />
<glyph unicode="7" horiz-adv-x="1105" d="M0 1253q0 57 70 121q-4 18 24 90q193 51 260 52h650q6 16 14 35.5t29 19.5q23 0 50 -30t23 -46l-643 -1335q37 -68 37 -105q0 -61 -47 -98q-39 -31 -82 -31q-49 0 -88 37t-39 88q0 68 92 125q20 12 75.5 116.5t158.5 311.5q123 268 372 803h-747q-4 -8 -16 -27 q66 -98 65 -131q0 -61 -51 -100q-39 -29 -78 -29q-57 0 -93 45t-36 88z" />
<glyph unicode="8" horiz-adv-x="1372" d="M82 326q0 143 96 268q86 111 281 246q-109 78 -148 149q-27 51 -26 131q0 172 129 291q123 115 325 143q10 0 49 31t80 31q63 0 125 -103q10 -18 51 -55t54 -55q23 -39 22 -98q0 -63 -43 -136q-31 -53 -123 -161q233 -63 289 -95q133 -75 133 -239q0 -199 -190 -369 q-152 -137 -393 -227q-207 -78 -334 -78q-162 0 -264 78q-113 88 -113 248zM193 322q0 -113 75.5 -180.5t194.5 -67.5q106 0 291 76q209 88 346 212q168 152 168 318q0 115 -101 178q-82 51 -194 51q-117 0 -291 -69q-203 -78 -332 -199q-158 -147 -157 -319zM385 1116 q0 -66 33 -129q43 -88 123 -88q12 0 57 24.5t59 28.5q80 12 203 52q49 31 99.5 140.5t50.5 172.5q0 39 -21 96q-111 -55 -121 -55q-68 0 -129 96q-8 6 -41 6q-135 0 -227 -112q-86 -102 -86 -232z" />
<glyph unicode="9" horiz-adv-x="1341" d="M8 340q0 63 47 98q39 31 86 31q92 0 121 -96q8 -25 8 -43q0 -23 -14 -49.5t-14 -44.5q109 -190 317 -191q303 0 483 301q147 242 170 576l-6 98q-340 -406 -641 -406q-170 0 -286 105q-123 106 -123 272q0 258 223 408q184 125 412 125q109 0 219 -43q135 -51 211 -150 q4 -6 31.5 -10t39.5 -12q58 -42 58 -103q0 -63 -62 -121q6 -53 12 -143q20 -391 -174 -670q-209 -299 -561 -299q-266 0 -407 228q-6 8 -44 15t-48 17q-57 49 -58 107zM266 1024q0 -123 78 -206t203 -83q178 0 360 131q63 47 129 129q74 95 74 148q0 104 -12 131 q-78 158 -326 158q-168 0 -319 -97q-186 -119 -187 -311z" />
<glyph unicode=":" horiz-adv-x="421" d="M156 106q0 53 31.5 93.5t86.5 40.5q93 0 93 -121q0 -137 -115 -137q-47 0 -74 49q-23 37 -22 75zM156 795q0 39 26 92q35 68 88 67q49 0 82 -75q25 -56 25 -95q0 -115 -129 -114q-45 0 -68.5 39t-23.5 86z" />
<glyph unicode=";" horiz-adv-x="405" d="M18 -168q14 31 45 31q12 0 21.5 -5t21.5 -5q82 0 170 159q-12 4 -34 2q-33 -6 -39 -6q-74 0 -74 84q0 61 39 104.5t98 43.5q55 0 86 -52q25 -37 25 -82q0 -94 -76 -194q-82 -104 -186 -127q-8 -4 -17 -8q-16 -6 -28 -6q-35 0 -52 30v31zM111 799q0 55 26 98q33 57 92 57 q47 0 74 -34.5t27 -83.5q0 -59 -27 -109q-33 -57 -88 -57q-104 0 -104 129z" />
<glyph unicode="&#x3c;" horiz-adv-x="1140" d="M147 524q0 66 58 94q59 18 119 35q123 39 284 127q139 76 279 154q10 150 133 149q61 0 98 -47q29 -39 29 -82q0 -61 -47 -98q-39 -31 -80 -31q-12 0 -49 18.5t-47 18.5q-29 0 -521 -280v-99q487 -328 510 -327q10 0 50.5 18.5t50.5 18.5q59 0 96 -46q29 -37 29 -84 q0 -61 -49 -98q-37 -29 -80 -28q-49 0 -80 49q-49 78 -51 80q-102 96 -322 223q-197 115 -221 114q-10 0 -27.5 -4t-27.5 -4q-55 0 -94.5 39t-39.5 90z" />
<glyph unicode="=" horiz-adv-x="1210" d="M37 293q0 53 40 91t83 38q74 0 131 -92h676q45 74 120 73q125 0 125 -129q0 -55 -36.5 -91t-88.5 -36q-61 0 -131 93h-673q-70 -74 -123 -74q-55 0 -89 38t-34 89zM45 743q0 61 43 101q37 37 82 37q68 0 131 -101h619q57 111 137 111q63 0 100 -55q27 -44 27 -93 q0 -55 -37 -86.5t-90 -31.5q-76 0 -127 63h-639q-47 -63 -121 -63q-61 0 -93 34.5t-32 83.5z" />
<glyph unicode="&#x3e;" horiz-adv-x="1138" d="M166 973q0 49 40 89t93 40q59 0 92 -46t33 -104q541 -301 559 -301q8 0 39 9.5t43 9.5q61 0 98 -47q31 -39 31 -82q0 -61 -49 -99q-39 -29 -80 -28q-10 0 -35.5 9t-38.5 9q-18 0 -217 -127q-215 -137 -334 -231q-2 -23 -12 -62q-35 -76 -117 -75q-59 0 -98 49 q-29 39 -29 77q0 49 40 89.5t83 40.5q20 0 51 -13.5t41 -13.5q16 0 539 336v80q-535 291 -557 290q-8 0 -39 -14t-43 -14q-55 0 -94 39t-39 90z" />
<glyph unicode="?" horiz-adv-x="995" d="M-18 1194q0 82 67 109q37 14 119 12q182 256 461 256q125 0 223 -55q121 -70 121 -193q0 -147 -174 -305q-160 -129 -322 -260q-170 -150 -166 -277q27 -41 92 -41q12 0 38 5.5t38 5.5q10 37 37 106q31 57 105 57q51 0 90 -47q33 -41 32 -80q0 -51 -36.5 -90t-85.5 -39 q-10 0 -43 9.5t-46 9.5q-12 0 -55 -9.5t-55 -9.5q-72 0 -135 39q-76 47 -76 121q0 119 170 266q156 129 313 258q168 154 168 285q0 90 -69 135q-55 35 -131 35q-193 0 -431 -235q6 -31 7 -58q0 -147 -127 -147q-63 0 -99 47q-31 39 -30 90zM322 147q0 49 38.5 88t90.5 39 q61 0 98 -47q29 -39 29 -80q0 -61 -48 -98q-39 -31 -79 -31q-61 0 -101 50q-29 37 -28 79z" />
<glyph unicode="@" horiz-adv-x="1728" d="M129 524q0 248 154 502q150 244 387 399q248 164 501 164q276 0 431 -196q133 -173 133 -435q0 -195 -93 -417q-127 -311 -348 -312q-61 0 -98 58q-31 47 -31 104q0 6 2 127t2 152q-328 -395 -540 -396q-178 0 -178 222q0 246 192 485q209 254 490 301q14 2 45 4 q57 109 139 109q57 0 94 -45q31 -39 31 -82q0 -39 -7.5 -51.5t-50.5 -55.5q-16 -10 -51 -31q-66 -791 -65 -739q0 -70 63 -69q143 0 242 307q70 223 69 348q0 223 -124 375q-137 164 -361 164q-258 0 -485 -168q-203 -152 -327 -390.5t-124 -457.5q0 -188 107 -310 q113 -127 301 -127q211 0 276 101q10 33 35 92q31 47 92 47q53 0 89 -39t36 -90q0 -129 -125 -129q-10 0 -38.5 14.5t-39.5 14.5q-12 0 -34 -15q-29 -18 -33 -20q-154 -66 -281 -66q-238 0 -368 187q-109 154 -109 364zM541 514q0 -129 121 -129q195 0 391 250 q186 236 186 422q0 156 -129 155q-129 0 -272 -145q-119 -121 -211 -299q-86 -166 -86 -254z" />
<glyph unicode="A" horiz-adv-x="1445" d="M8 70q0 68 58 110q23 4 55 23q16 16 59 116q74 166 291 635q180 389 180 400q0 6 -22.5 43t-22.5 67q0 53 41 97.5t101 44.5q61 0 102 -45t41 -97q0 -12 -23.5 -57t-23.5 -57q0 -39 67 -197q141 -307 422 -926q16 -18 57.5 -58t41.5 -95q0 -61 -46.5 -99t-95.5 -38 q-57 0 -100 43t-43 94q0 45 32.5 84t32.5 45q0 23 -237 495h-27q-45 0 -114 4q-106 6 -146 7q-135 0 -203 -50q-92 -70 -168 -278q-59 -166 -59 -215q0 -10 17.5 -46t17.5 -57q0 -66 -46 -101.5t-95 -35.5q-61 0 -105 49q-39 43 -39 95zM532 772l394 29l-187 504z" />
<glyph unicode="B" horiz-adv-x="1327" d="M111 1401q0 57 32 100q37 51 105 51q53 0 94 -45q14 -14 59 -84q270 100 453 101q74 0 156 -25q113 -33 137 -92q23 -37 22 -78q0 -141 -270 -323q236 -49 311 -95q129 -78 129 -245q0 -104 -49 -213q-55 -123 -221 -236q-139 -98 -283 -141q-63 -18 -184 -41 q-145 -25 -201 -39q-12 -2 -30 -25q-25 -27 -33 -32q-31 -20 -72 -21q-70 0 -108 47q-29 39 -29 90q0 41 10.5 62.5t63.5 72.5v574q-27 12 -50.5 55t-23.5 72q0 27 21.5 66.5t52.5 58.5v235q-66 49 -80 78q-12 20 -12 72zM340 178q2 -2 37 -45q19 -22 30 -22h1q104 0 282 63 q211 76 344 186q168 142 168 306q0 135 -170 192q-104 33 -248 33q-33 0 -211 -12q-121 -10 -157 -29q-12 -6 -38 -40t-38 -42v-590zM340 1016q25 -14 47 -45q14 -16 39 -17q109 0 336 105q276 127 276 264q0 59 -37 74l-243 -2q-283 -47 -418 -135v-244z" />
<glyph unicode="C" horiz-adv-x="1198" d="M111 592q0 289 141 571q186 371 506 371q94 0 184 -33l90 -33q10 0 27.5 5.5t27.5 5.5q59 0 105 -49q39 -46 39 -91q0 -59 -47 -102t-101 -43q-135 0 -141 176q-33 43 -166 43q-287 0 -442 -328q-113 -240 -113 -489q0 -182 64 -313q88 -182 274 -183q188 0 383 199 q-4 20 -4 39q0 68 39 113t102 45q70 0 109 -47q33 -41 33 -101q0 -82 -76 -112q-59 -18 -119 -37q-45 -39 -137 -113q-166 -123 -342 -123q-231 0 -350 242q-86 176 -86 387z" />
<glyph unicode="D" horiz-adv-x="1325" d="M137 1419q0 57 40 99.5t97 42.5q45 0 76 -27q23 -18 70 -84q197 92 379 92q256 0 399 -176q125 -156 125 -389q0 -391 -322 -666q-295 -256 -780 -346v1323q-84 55 -84 131zM358 147h33q352 88 574 336q211 240 211 523q0 184 -104.5 286.5t-295.5 102.5q-111 0 -213 -29 q-31 -10 -205 -74v-1145z" />
<glyph unicode="E" horiz-adv-x="1255" d="M111 725q0 66 92 145v344q-61 43 -78 80q-6 14 -6 56q0 70 49 108q37 29 90 29q78 0 125 -74q346 16 520 39q29 27 60.5 54.5t68.5 27.5q61 0 102.5 -46t41.5 -102q0 -68 -50 -106q-39 -31 -88 -31q-12 0 -76.5 32t-74.5 32q-8 0 -109 -10q-111 -12 -168 -15 q-80 -4 -161 -6q-88 -8 -109 -39v-420q6 -6 27 -6q86 0 436 57q20 16 71 58q28 22 68 22h4q63 0 104.5 -45t41.5 -96q0 -55 -46.5 -99t-95.5 -44q-33 0 -83 32l-50 33q-43 0 -424 -59q-27 -27 -53 -74v-457q289 6 672 39q39 74 127 74q70 0 108 -49q29 -39 29 -90 q0 -55 -41 -100.5t-88 -45.5q-51 0 -93 36t-67 36q-43 0 -235 -12q-242 -16 -353 -37q-10 -2 -25.5 -26.5t-27.5 -30.5q-51 -31 -88 -31q-72 0 -108 49q-31 39 -31 88q0 51 22 82q14 18 62 53v402q-92 86 -92 143z" />
<glyph unicode="F" horiz-adv-x="1089" d="M111 762q0 78 92 135v299q-66 53 -82 84q-10 18 -10 59q0 70 51 113q43 35 86 35q12 0 60 -27.5t59 -27.5q8 0 211 30q227 35 315 45q8 23 50 43.5t71 20.5q68 0 104 -49q29 -40 29 -95q0 -63 -38 -102t-89 -39q-61 0 -102 41t-50 41q-14 0 -485 -76q-16 -35 -43 -59 v-383q6 -6 22 -6q-8 0 457 57q74 109 146 109q66 0 104 -49q33 -43 33 -93q0 -59 -47 -101t-90 -42q-12 0 -69.5 27.5t-70.5 27.5q-72 0 -415 -49q-16 -2 -35 -29q-29 -41 -35 -47v-446q74 -76 74 -135q0 -57 -46 -97t-98 -40q-59 0 -100 46t-41 95q0 76 74 131v409 q-59 39 -78 72q-14 25 -14 72z" />
<glyph unicode="G" horiz-adv-x="1619" d="M74 610q0 383 323 674q309 276 682 277q129 0 295 -72q35 -2 92 -14q76 -35 76 -129q0 -63 -43 -103.5t-98 -40.5q-84 0 -115 58q-20 41 -22 129q-66 53 -199 53q-360 0 -610 -291q-233 -272 -234 -610q0 -203 125 -331t316 -128q195 0 378 117q203 129 322 358 q70 137 70 172q0 12 -17.5 27.5t-32.5 15.5q-10 0 -120 -27q-135 -33 -181 -40q-14 -23 -39 -60q-46 -67 -116 -67h-2q-59 0 -105 49q-39 43 -39 90q0 63 49 106q43 39 95 39q8 0 50 -18.5t54 -18.5q8 0 129 31q135 35 195 45q8 2 22 14q51 86 131 86q70 0 109 -57 q28 -43 28 -90q0 -59 -43 -106q-57 -59 -79 -130q-18 -61 -91 -178.5t-133 -181.5q-154 -158 -278.5 -226.5t-269.5 -68.5q-289 0 -481.5 179.5t-192.5 467.5z" />
<glyph unicode="H" horiz-adv-x="1386" d="M119 70q0 33 23.5 72.5t60.5 58.5v1106q-27 8 -50.5 48t-23.5 72q0 66 44 105t101 39q66 0 103 -44t37 -95q0 -80 -76 -125v-445l782 37v416q-73 48 -73 129q0 53 43 99t100 46q59 0 100 -46t41 -93q0 -29 -21.5 -68t-52.5 -57v-1126q20 -14 47 -59t27 -70 q0 -61 -46 -102.5t-101 -41.5t-96 47t-41 97q0 76 73 129v555q-20 1 -47 1q-97 0 -295 -16q-315 -23 -413 -26q-8 -2 -25 -13v-501q63 -57 63 -125q0 -66 -45 -107t-96 -41q-61 0 -104 49q-39 43 -39 95z" />
<glyph unicode="I" horiz-adv-x="428" d="M119 70q0 70 74 129v1108q-63 66 -64 135q0 45 29 86q37 51 94 51t95 -46t38 -95q0 -72 -63 -131v-1121q14 -16 26 -34q29 -41 29 -89q0 -53 -41 -95t-92 -42q-59 0 -94 49q-31 41 -31 95z" />
<glyph unicode="J" horiz-adv-x="1120" d="M-18 266q0 57 51 105q45 43 92 43q59 0 100 -46t41 -102q0 -43 -30 -82q-2 -2 -52 -51q43 -92 107 -123q41 -18 117 -18q6 0 48 6t62 4h5q81 0 214 115q143 127 144 229v924q-74 57 -74 131q0 49 39 95t104 46q61 0 101 -47q32 -41 32 -90q0 -68 -65 -127v-999 q2 -14 -31 -93q-49 -123 -199 -217q-125 -80 -241 -96q-86 -10 -125 -10q-129 0 -227 59q-121 74 -144 219q-10 8 -28 27q-41 51 -41 98z" />
<glyph unicode="K" horiz-adv-x="1306" d="M119 74q0 68 84 135v1114q-37 12 -62 66q-23 45 -22 71q0 49 41 97.5t98 48.5q59 0 100 -56q37 -47 37 -94q0 -35 -22 -72q-25 -43 -62 -59l8 -289q14 12 467 367q2 74 42 125t104 51q66 0 106 -45q35 -43 35 -102q0 -137 -145 -138q-41 0 -56 11l-487 -373l774 -739 q4 0 17.5 5t25.5 5q59 0 103 -51q34 -46 34 -93q0 -61 -44 -101t-101 -40q-100 0 -127 94q3 12 3 27q0 23 -7 55q-141 152 -367 365q-188 180 -377 358l-8 -592q29 -39 60 -80q25 -37 24 -67q0 -59 -44 -100t-93 -41q-68 0 -106 47q-33 41 -33 90z" />
<glyph unicode="L" horiz-adv-x="1015" d="M119 41q0 68 84 131v1135q-74 72 -74 131q0 57 41 99t96 42q66 0 105 -45q33 -41 32 -92q0 -70 -63 -135v-1153q37 -43 55 -43q10 0 148 24q168 33 221 41q55 98 141 98q55 0 98.5 -46t43.5 -95q0 -59 -46.5 -100t-95.5 -41q-37 0 -79 26l-42 27q-51 0 -391 -57 q-51 -61 -80 -78q-20 -10 -55 -10q-68 0 -106 47q-33 41 -33 94z" />
<glyph unicode="M" horiz-adv-x="1699" d="M119 63q0 35 25.5 77t58.5 61v1087q-74 47 -74 131q0 47 40 94.5t93 47.5q55 0 98 -47.5t43 -94.5q0 -12 -22.5 -56t-22.5 -54q0 -53 48 -154q72 -152 202 -391q174 -322 211 -389q8 -14 19 -47q0 -8 10 -25q72 162 174 320q119 162 235 325q156 227 156 365 q0 4 -22.5 38.5t-22.5 80.5q0 55 39 97t94 42q59 0 100 -46t41 -93q0 -61 -73 -136v-1087q55 -49 67 -80q6 -16 6 -55q0 -63 -37.5 -100t-95.5 -37q-66 0 -102 47q-31 39 -31 90q0 49 23 78q8 14 61 57l-6 848q-127 -197 -254 -393q-254 -397 -254 -449q0 -4 18.5 -33.5 t18.5 -70.5q0 -68 -47 -107q-39 -31 -96 -31q-61 0 -101.5 42t-40.5 100q0 29 2 37t22.5 30.5t20.5 32.5q0 94 -428 850v-866q80 -49 80 -136q0 -61 -49 -100q-41 -37 -88 -37q-57 0 -98 45t-41 92z" />
<glyph unicode="N" horiz-adv-x="1374" d="M119 51q0 31 23.5 72t60.5 59v1098q-51 51 -53 57q-20 29 -21 72q0 70 47 111t98 41q50 -1 92 -47q41 -44 40 -92q0 -27 -19 -95q66 -154 197 -340q63 -90 256 -338q205 -260 282 -393v1051q-59 49 -65 57q-29 31 -29 78q0 55 42 101t95 46q57 0 98.5 -46t41.5 -97 q0 -27 -17 -62q-18 -43 -49 -59v-1126q66 -57 66 -125q0 -63 -44 -100t-100 -37q-57 0 -95 36.5t-38 98.5q0 33 12 69q-43 102 -215 312q-233 283 -235 284q-102 141 -244 373l-6 -911q2 -4 39 -80q25 -53 24 -68q0 -57 -47 -100t-94 -43q-61 0 -104 49q-39 43 -39 94z" />
<glyph unicode="O" horiz-adv-x="1333" d="M111 532q0 293 172 615q201 375 491 426q18 14 55 39q25 12 66 12q74 0 119 -55q6 -27 24 -64q256 -235 256 -628q0 -313 -149 -580q-190 -342 -531 -342q-254 0 -391 195q-113 160 -112 382zM240 514q0 -166 67 -283q93 -157 287 -157h2q285 0 455 305q133 242 133 508 q0 291 -178 489q-68 -37 -111 -37q-51 1 -103 47q-45 41 -45 45q0 1 1 1q-72 0 -193 -127q-102 -104 -139 -179q-119 -236 -156 -413q-20 -98 -20 -199z" />
<glyph unicode="P" horiz-adv-x="1181" d="M119 1221q0 59 47 103t92 44q10 0 44 -18.5t42 -18.5q10 0 37 17q37 23 43 26q258 123 504 123q113 0 194 -37q109 -49 109 -151q0 -145 -195 -289q-145 -111 -372 -201q-184 -74 -244 -78q-20 -39 -90 -104v-438q25 -18 51 -54q33 -45 33 -75q0 -57 -47.5 -100.5 t-96.5 -43.5q-51 0 -92 47t-41 97q0 68 84 129v446q-74 72 -74 131q0 39 21 76q20 16 49 53q4 8 4 90q0 53 -4 90q-98 78 -98 136zM330 1010q0 -147 73 -148q57 0 222 66q190 74 317 162q160 113 160 215q0 90 -152 90q-133 0 -313 -60q-139 -49 -240 -106q-4 -29 -22 -74 q-20 -18 -41 -47q-4 -12 -4 -98z" />
<glyph unicode="Q" horiz-adv-x="1484" d="M92 473q0 31 29 266q29 221 219 478q213 291 453 337q18 23 53 58q37 22 89 22h5q49 0 78 -30q39 -47 63 -60q287 -152 287 -575q0 -164 -61 -344q-66 -199 -187 -355q156 -188 185 -188q8 0 25.5 9t27.5 9q49 0 94 -46t45 -95q0 -61 -46 -102t-101 -41q-37 0 -76 22 q-45 27 -51 66q2 13 2 30q0 29 -6 68q-23 37 -168 182q-267 -239 -525 -239h-2q-233 0 -346 178q-86 137 -86 350zM258 496q0 -152 53 -258q78 -156 254 -156q199 0 389 207q-61 61 -84 92q-37 0 -92 6q-108 39 -108 139q0 55 46 99.5t101 44.5q109 0 125 -78q4 -45 14 -111 q8 -23 45 -59q45 -49 50 -55q180 298 180 579q0 274 -180 449q-55 -45 -119 -45q-80 0 -137 73q-272 -96 -420 -409q-117 -250 -117 -518z" />
<glyph unicode="R" horiz-adv-x="1329" d="M92 1243q0 59 39 101t94 42q10 0 47 -18t50 -18q10 0 65 34q66 41 92 54q186 78 361 78q325 0 325 -206q0 -171 -159 -296q-119 -94 -330 -162q-141 -39 -281 -78l740 -590q49 18 77 19q63 0 105 -49q33 -41 33 -95q0 -59 -40 -100t-98 -41q-125 0 -149 158l-690 557 q-70 -10 -70 -82v4q1 0 4 -74q4 -90 4 -266q0 -6 43 -61q23 -29 23 -76q0 -57 -40 -104.5t-93 -47.5q-57 0 -100.5 45t-43.5 103q0 88 103 135v436q-74 55 -74 135q0 55 37 90t37 136q0 51 -4 90q-68 55 -84 75q-23 29 -23 72zM307 1108q0 -6 2 -30.5t2 -49.5q0 -66 4 -80 q10 -67 57 -67h1q53 0 205 53q180 63 296 143q154 104 154 213q0 104 -156 105q-127 0 -374 -99q-39 -14 -78 -30q-49 -20 -60 -37q-53 -94 -53 -121z" />
<glyph unicode="S" horiz-adv-x="1335" d="M45 293q0 72 51 108q39 31 88 31q55 0 96.5 -46t41.5 -97q0 -37 -37 -90q90 -98 247 -99q188 0 416 133q272 160 273 377q0 92 -47 148q-49 60 -139 60q-12 0 -25 -1l-656 -129q-11 -1 -22 -1q-203 0 -203 222q0 238 213 426q205 180 434 181q96 0 185.5 -33t85.5 -33 q8 0 30.5 9t32.5 9q49 0 94 -49t45 -92q0 -61 -47 -102t-100 -41q-76 0 -107 49q-12 18 -34 102q-6 23 -39 29q-131 31 -174 31q-164 0 -328 -125q-180 -139 -180 -320q0 -125 133 -125q90 0 320.5 64.5t316.5 64.5q154 0 247 -93t93 -240q0 -193 -162 -355 q-133 -137 -346 -225q-188 -78 -328 -78q-217 0 -356 191q-25 10 -66 32q-47 47 -47 107z" />
<glyph unicode="T" horiz-adv-x="1146" d="M-18 1309q0 63 38.5 102t104.5 39q49 0 84 -37t43 -37q20 0 252 43q254 45 399 80q8 12 29.5 42t79.5 63q10 2 35 2q70 0 108 -50q29 -39 29 -92q0 -63 -38 -102t-95 -39q-39 0 -80 26.5t-39 26.5q12 0 -309 -53v-1122q20 -6 47.5 -50.5t27.5 -72.5q0 -57 -46 -99 t-101 -42q-61 0 -99 47t-38 94q0 76 73 131v1079q6 6 -14 6q-96 0 -219 -39q-16 -23 -53 -61q-35 -29 -86 -29q-68 0 -103 47q-31 39 -30 97z" />
<glyph unicode="U" horiz-adv-x="1224" d="M119 1446q0 51 31 92q37 51 102 51q57 0 95 -47t38 -96q0 -39 -14 -64q-4 -6 -41 -49v-1128q0 -18 28 -41q102 -82 207 -82q104 0 269 84q186 92 186 188v942q-92 61 -92 142q0 57 39 99t94 42t98 -46t43 -95q0 -59 -74 -131v-981q0 -12 -7 -26.5t-9 -20.5 q-35 -125 -182 -216q-119 -74 -254 -98q-63 -10 -125 -10q-109 0 -205 47q-125 63 -125 178v1127q-70 45 -86 67.5t-16 71.5z" />
<glyph unicode="V" horiz-adv-x="1204" d="M-37 1409q0 49 37 92q41 51 106 51q59 0 100.5 -46t41.5 -97q0 -35 -45 -115l289 -972l481 987q-37 53 -37 96q0 63 49 108q43 39 94 39q61 0 101.5 -46t40.5 -101q0 -72 -66 -117q-20 -2 -53 -22q-164 -256 -330 -594q-78 -162 -106 -228q-59 -147 -76 -266 q14 -25 24 -72q-4 -70 -45 -110.5t-96 -40.5q-59 0 -101 46t-42 95q0 12 18.5 62.5t18.5 62.5q0 74 -39 223q-23 82 -131 433q-115 375 -123 383t-17 14q-94 51 -94 135z" />
<glyph unicode="W" horiz-adv-x="1728" d="M-6 1530q43 41 94 41q59 0 100 -46t41 -98q0 -53 -45 -110l207 -1006q16 16 146 422q133 430 133 529q0 4 -32 46t-32 87q0 59 49 104q43 43 88 43q55 0 101.5 -47t46.5 -94q0 -16 -23 -60q-29 -55 -32 -65l335 -983q37 119 117 356q55 154 113 309q96 279 96 369 q0 8 -23.5 63.5t-23.5 69.5q0 66 49 109q43 37 98 37q61 0 103 -47q35 -44 35 -99q0 -27 -19.5 -66.5t-38.5 -50.5q-25 -8 -63 -32q0 -2 -21 -68q-47 -162 -196 -651q-121 -395 -121 -408q0 -10 23.5 -58t23.5 -67q0 -57 -41 -99t-102 -42q-59 0 -100.5 46t-41.5 91 q0 49 35 111l-317 928q-4 0 -11 -9q-78 -272 -256 -925q-4 -10 5.5 -49t9.5 -62q0 -53 -43 -92t-99 -39q-59 0 -100 46t-41 95q0 12 22.5 62.5t22.5 62.5q0 20 -43 305q-55 362 -153 781q-20 12 -60 37q-65 46 -65 114q0 65 49 109z" />
<glyph unicode="X" horiz-adv-x="1099" d="M-18 59q0 49 53 84q80 53 86 60q98 113 231 354q117 215 117 242t-293 493h-12q-63 0 -111 38q-53 42 -53 108q0 59 49 102q43 39 98 39q82 0 107 -66q16 -66 33 -131q37 -100 116 -235q123 -209 134 -229q84 109 294 446q-14 33 -14 66q0 61 42 105t99 44 q61 0 102.5 -46t41.5 -95q0 -35 -26.5 -78t-69.5 -53q-20 0 -52 -15q-98 -125 -228 -310t-130 -202q0 -12 18 -47q29 -53 31 -57q154 -342 262 -473q25 -4 74 -23q20 -12 45 -49q31 -43 31 -72q0 -61 -47 -101t-101 -40q-63 0 -100 43t-37 102q0 49 27 89l-281 491 l-278 -500q35 -47 34 -88q0 -66 -57 -106q-45 -31 -88 -31q-66 0 -106.5 45t-40.5 96z" />
<glyph unicode="Y" horiz-adv-x="1355" d="M-82 1483q0 61 46 101t95 40q61 0 102.5 -47t41.5 -107q0 -16 -4 -32q166 -195 448 -510l481 499q-18 33 -18 70q0 53 41 99t102 46t101.5 -46t40.5 -99q0 -57 -47 -88q-55 -31 -111 -61q-117 -84 -268 -252q-127 -141 -254 -285v-592q37 -18 60.5 -58t23.5 -73 q0 -61 -46 -102t-102 -41q-55 0 -98 49q-39 43 -39 88q0 25 20.5 66.5t45.5 60.5v602q-170 178 -494 526q-10 -1 -19 -1q-66 0 -105 38q-44 43 -44 109z" />
<glyph unicode="Z" horiz-adv-x="1189" d="M18 74q0 53 965 1335q-10 4 -55 4q-362 0 -529 -31q-12 -2 -41 -26q-35 -33 -47 -38t-37 -5q-55 0 -98 49q-39 43 -39 94q0 47 33 90q39 51 100 51q47 0 98.5 -46t75.5 -46l584 47q133 0 174 -41q-139 -236 -414 -606q-463 -629 -559 -764h709q68 88 141 88q57 0 95 -43 t38 -98q0 -66 -38.5 -104.5t-100.5 -38.5q-41 0 -133 55l-815 -8q-47 0 -77 22.5t-30 59.5z" />
<glyph unicode="[" horiz-adv-x="702" d="M193 -514v1989q18 31 55 30q12 0 18 -4t19 -4q158 0 297 39q12 2 34.5 22.5t45.5 20.5t39 -25.5t16 -48.5t-16.5 -43t-34.5 -20q-10 0 -37 9t-37 9q-70 0 -299 -63v-1811q301 -14 405 33q4 2 19.5 -2t23.5 -4q0 -2 6.5 -14.5t6.5 -24.5q0 -8 -18.5 -38t-33.5 -30 q-72 -2 -237 -12q-150 -8 -158 -8h-114z" />
<glyph unicode="\" horiz-adv-x="704" d="M66 1481v30q20 23 53 23q41 0 69 -21q6 -12 7 -45q-2 -37 0 -49q8 -31 36 -108q39 -117 119 -350q47 -127 121 -349q55 -170 164 -477q6 -14 39 -51t33 -47q0 -33 -37 -51q-29 -12 -60 -13q-25 0 -55 19q-6 8 -6 20t9 42t7 42q-12 74 -51 185q-33 96 -68 190 q-111 334 -329 954q-16 16 -51 56z" />
<glyph unicode="]" horiz-adv-x="712" d="M55 1464q0 12 24.5 47t43.5 37q397 41 434 39h47v-2052q-18 -23 -39 -22q-12 0 -28.5 14t-26.5 14q-12 0 -184 -36.5t-185 -36.5q-25 0 -42 20t-17 43q0 47 43 47q10 0 35.5 -9t36.5 -9q76 0 319 80v1830q-37 6 -154 -8q-35 -4 -155 -24q-98 -14 -111 -15q-41 0 -41 41z " />
<glyph unicode="^" horiz-adv-x="1058" d="M211 995q0 33 219 273l246 266l416 -543q-16 -45 -45 -45q-43 0 -56 21q-66 111 -317 438q-33 -43 -205 -219q-141 -141 -160 -201q-10 -31 -51 -31q-47 0 -47 41z" />
<glyph unicode="_" horiz-adv-x="1103" d="M10 -176h1174v-117h-1174v117z" />
<glyph unicode="`" horiz-adv-x="415" d="M8 1624q0 66 55 66q31 0 52 -31q6 -25 24 -74q4 -4 152 -192q131 -168 131 -191q0 -45 -55 -45q-41 0 -52 21q-43 86 -135 194q-125 154 -160 199q-12 18 -12 53z" />
<glyph unicode="a" horiz-adv-x="1136" d="M82 111q0 172 184 311q143 106 367 174q157 47 240 47q15 0 28 -2q8 39 8 131v37q2 25 2 37q0 108 -118 108h-2q-92 0 -227.5 -54t-184.5 -116q6 -25 6 -45q0 -59 -39 -96t-88 -37q-61 0 -98 47q-31 41 -31 86q0 53 39 88t94 35q10 0 27.5 -4t27.5 -4t33 18q29 27 37 33 q223 141 412 142q74 0 135 -33q76 -41 76 -109v-741q35 -14 58.5 -56t23.5 -75q0 -55 -44 -90t-94 -35q-53 0 -85.5 37t-32.5 92q0 61 73 125l-6 114q-424 -313 -663 -313q-158 0 -158 148zM156 84q25 -29 77 -29q106 0 277 72q184 78 297 184q114 108 114 212q0 18 -3 36 q-43 18 -68 19q-168 0 -424 -156q-270 -167 -270 -326v-12z" />
<glyph unicode="b" horiz-adv-x="1003" d="M92 45q0 25 27.5 67t64.5 60v1180q-73 54 -73 125q0 51 37.5 90t95.5 39q59 0 94 -45q29 -37 29 -82q0 -59 -36 -87t-38 -57l8 -555q162 111 238 154q170 94 282 94q199 0 199 -225q0 -209 -197 -436q-180 -211 -458 -361q-20 -23 -52 -55.5t-88 -32.5q-47 0 -90 39 t-43 88zM295 150q23 -25 67 -58q229 147 371 307q176 195 176 367q0 152 -137 152q-186 0 -477 -261v-507z" />
<glyph unicode="c" horiz-adv-x="1071" d="M100 348q0 248 156 457q178 242 451 242q8 0 58 -12.5t75 -12.5q180 -6 180 -131q0 -57 -37 -93t-88 -36q-84 0 -100 53q-10 47 -19 96q-20 53 -110 54q-195 0 -344 -228q-129 -195 -129 -364q0 -123 65 -209q72 -100 197 -101q186 0 376 228q-20 51 -20 94q0 61 38 95 t87 34t89 -40t40 -83q0 -68 -51 -96q-49 -20 -99 -41q-16 -10 -71 -72q-59 -70 -92 -96q-143 -113 -312 -113q-172 0 -264 121q-76 102 -76 254z" />
<glyph unicode="d" horiz-adv-x="1144" d="M74 166q0 246 213 512q229 287 493 287q51 0 135 -29v434q-59 57 -63 60q-27 33 -27 75q0 51 36 90t85 39q53 0 95 -39t42 -90q0 -53 -73 -116v-1227q31 -27 61.5 -56.5t30.5 -68.5q0 -53 -58 -90q-45 -29 -79 -29q-59 0 -93 39q-29 33 -28 80q0 53 37 95t37 89 q0 109 -15 230q-354 -477 -655 -478q-174 0 -174 193zM166 174q0 -129 92 -129q176 0 408.5 250t232.5 426q0 151 -121 151h-2q-137 0 -289 -133q-133 -117 -227 -285.5t-94 -279.5z" />
<glyph unicode="e" horiz-adv-x="1056" d="M100 303q0 182 97 369q111 213 292 303q47 25 94.5 48.5t100.5 23.5q76 0 150 -46q82 -51 116 -131q23 -51 23 -57v-94q-338 -145 -735 -184q-35 -135 -35 -224q0 -266 215 -266q90 0 199.5 60.5t177.5 156.5q-23 53 -23 98q0 61 41 97q34 30 83 30h3q53 0 91 -40t38 -85 q0 -68 -51 -96q-49 -20 -98 -39q-55 -63 -174 -170q-152 -102 -291 -102q-160 0 -244 113q-70 92 -70 235zM295 635l567 147q-66 172 -200 172q-180 0 -367 -319z" />
<glyph unicode="f" horiz-adv-x="870" d="M-74 844q0 57 49 96q41 33 84 33q12 0 58.5 -27.5t56.5 -27.5q12 0 80 26q8 98 16 195q18 182 68 284q70 147 203 148q68 0 110.5 -23.5t40.5 -23.5q10 0 34 9t36 9q63 0 94 -49q25 -35 25 -80q0 -55 -38 -91t-89 -36q-76 0 -99 49q-12 47 -26 92q-25 51 -105 52 q-72 0 -121 -101q-35 -74 -36 -125v-299q94 16 260 58q51 90 131 90q123 0 123 -129q0 -57 -36 -93t-87 -36q-12 0 -64.5 27.5t-64.5 27.5q-55 0 -262 -61v-684q31 -6 52 -47t21 -70q0 -57 -47 -96q-39 -33 -82 -33q-61 0 -98 49q-29 39 -29 80q0 57 74 125v657q-6 6 -18 6 q-47 0 -84 -54t-97 -54q-49 0 -91 39t-42 88z" />
<glyph unicode="g" horiz-adv-x="1038" d="M74 174q0 57 39 233.5t237.5 372t368.5 213.5q57 109 131 109q47 0 90 -40t43 -89q0 -23 -25.5 -66t-39.5 -51v-1044q0 4 -25 -74q-41 -131 -180 -195q-102 -49 -217 -49q-86 0 -147.5 23.5t-63.5 23.5q-10 0 -24.5 -5t-27.5 -5q-53 0 -90 49q-33 41 -32 80q0 61 47 98 q39 31 82 31q39 0 73.5 -29.5t40.5 -66.5q2 -23 6 -72q39 -27 66 -33q8 -2 66 -2q100 0 198 66q115 76 135 196l-4 658q-403 -569 -600 -569q-90 0 -127 102q-20 59 -20 135zM166 147q0 -57 4 -71q14 -49 74 -49q162 0 358 340q137 233 191 407q16 62 14 78q-10 8 -41 41 q-25 25 -37 25q-113 0 -303 -191q-197 -195 -219 -346q-8 -23 -21 -64q-20 -82 -20 -170z" />
<glyph unicode="h" horiz-adv-x="1077" d="M100 45q0 68 84 127v336q-49 39 -61 59.5t-12 61.5q0 82 73 121v583q-43 41 -53 58q-20 29 -20 73q0 59 36.5 92t92.5 33q53 0 90 -39t37 -90q0 -72 -93 -135v-637q319 322 525 322q63 0 108 -47q39 -43 39 -95v-686q92 -57 92 -137q0 -47 -40 -87t-80 -40 q-53 0 -95.5 39t-42.5 84q0 61 74 121v686q0 31 -35 53q-29 16 -53 17q-74 0 -211 -99q-115 -84 -197 -174q-4 -25 -12 -63q-8 -20 -72 -84v-318q92 -78 93 -135q0 -59 -50 -98q-39 -29 -77 -29q-57 0 -98.5 40t-41.5 87z" />
<glyph unicode="i" horiz-adv-x="419" d="M92 74q0 84 92 135v629q-73 42 -73 118q0 45 30 86q35 49 88 50q55 0 96.5 -45.5t41.5 -88.5q0 -20 -21 -57q-23 -47 -53 -63v-658q16 -12 35.5 -53t19.5 -53q0 -57 -44 -93t-89 -36q-61 0 -96 49q-27 39 -27 80zM92 1305q0 49 40 88t83 39q55 0 94 -38t39 -89 q0 -57 -44 -93t-89 -36q-51 0 -87 45t-36 84z" />
<glyph unicode="j" horiz-adv-x="458" d="M-303 -385q0 55 39 96t94 41t90 -44t35 -99q0 -41 -18 -72q43 -24 96 -24h4q80 0 141.5 54t61.5 126v1136q-74 70 -74 125q0 51 36 90t87 39q57 0 95 -37t38 -96q0 -55 -74 -112v-1137q0 8 -16 -55q-31 -127 -115 -193q-76 -59 -176 -59q-53 0 -109 26q-4 2 -96 54 q-29 0 -94 34q-45 43 -45 107zM119 1368q0 51 40 90t89 39q68 0 102 -49q27 -37 27 -80q0 -68 -49 -102q-35 -27 -80 -27q-61 0 -98 49q-31 41 -31 80z" />
<glyph unicode="k" horiz-adv-x="942" d="M100 23q0 61 84 122v1217q-73 67 -73 123q0 53 38.5 92t90.5 39q61 0 98 -47q29 -39 29 -82q0 -78 -93 -135l9 -764q223 207 426 409q-4 16 -4 31q0 55 40.5 96t90.5 41q61 0 98 -47q31 -41 31 -90q0 -102 -97 -117q-12 2 -28 2q-26 0 -62 -6q-86 -66 -411 -370l411 -408 q2 0 14.5 4t24.5 4q63 0 96 -47q23 -37 23 -82q0 -61 -37 -94t-92 -33q-106 0 -117 115q0 8 6 29.5t6 29.5q0 12 -6 21q-92 109 -415 411q-6 -6 -7 -333q84 -63 84 -131q0 -47 -37.5 -90.5t-87.5 -43.5q-53 0 -93 41t-40 93z" />
<glyph unicode="l" horiz-adv-x="423" d="M149.5 1540q38.5 39 90.5 39q57 0 92 -40t35 -83q0 -45 -17 -72q-10 -14 -57 -59v-1143q84 -51 84 -127q0 -61 -49 -98q-37 -31 -80 -31q-61 0 -98 49q-31 39 -31 80q0 61 65 125v1145q-73 54 -73 123q0 53 38.5 92z" />
<glyph unicode="m" horiz-adv-x="1640" d="M100 1010q0 51 39 90t90 39q61 0 99 -49q30 -38 30 -81q0 -46 -24 -79q-12 -14 -60 -56l9 -122q59 47 237 161q213 133 256 134q45 0 64 -39q25 -47 32 -129q14 -152 15 -154q129 98 256 197q188 135 284 135q16 0 52.5 -18.5t36.5 -41.5v-825q90 -61 90 -135 q0 -51 -37 -90t-86 -39q-55 0 -94 39t-39 94t73 121v723q-23 25 -47 24q-59 0 -274 -143q-111 -80 -221 -158v-436q65 -54 65 -115q0 -63 -49 -100q-39 -31 -84 -31q-57 0 -91 38t-34 87q0 88 103 139v713q-16 25 -43 25q-61 0 -261 -140q-147 -102 -213 -161v-465 q63 -51 80 -78q12 -18 13 -57q0 -61 -48 -99q-38 -28 -76 -28h-3q-61 0 -101 47q-29 39 -28 80q0 59 73 127v729q-84 43 -84 127z" />
<glyph unicode="n" horiz-adv-x="1067" d="M100 33q0 68 84 121v712q-84 66 -84 125t39 98t94 39t90 -45t35 -92q0 -59 -84 -135l7 -176q63 74 245 213q213 164 295 164q55 0 94 -58q31 -49 31 -94v-741q82 -51 82 -127q0 -59 -36 -94t-87 -35q-55 0 -94 39t-39 86q0 66 82 129v723q-31 33 -55 33q-70 0 -299 -173 q-174 -133 -226 -182v-401q84 -63 84 -135q0 -53 -37.5 -90t-87.5 -37q-55 0 -94 38.5t-39 94.5z" />
<glyph unicode="o" horiz-adv-x="1069" d="M82 385q0 236 162 438q176 223 426 224q10 0 34.5 -4.5t34.5 -4.5t45 13.5t47 13.5q57 0 101 -57q8 -12 14 -41q6 -35 10 -43q25 -37 60 -111q22 -67 22 -147q0 -229 -161 -453q-182 -250 -426 -250q-188 0 -287 141q-82 115 -82 281zM260 158q78 -102 221 -103 q201 0 334 205q113 172 113 350q0 96 -49 207q-18 -10 -48 -10q-90 0 -145 119q-23 4 -47 4q-199 0 -332 -195q-114 -169 -114 -351q0 -136 67 -226z" />
<glyph unicode="p" horiz-adv-x="1077" d="M100 932q0 55 39 94t94 39q59 0 95 -47q30 -38 30 -79q0 -40 -16 -67q-2 -6 -49 -61l6 -131q287 340 500 340q139 0 205 -113q53 -88 53 -215q0 -123 -82 -291q-90 -182 -221 -301q-154 -137 -318 -137q-66 0 -139 37v-526q47 -47 53 -54q27 -35 27 -82q0 -59 -40 -94 t-85 -35q-49 0 -91 40t-42 89q0 47 65 117v1356q-51 43 -53 45q-31 33 -31 76zM295 141q66 -86 164 -86q184 0 352 250q154 225 154 393q0 66 -37 123q-49 78 -137 78q-203 0 -426 -287q-72 -90 -70 -112v-359z" />
<glyph unicode="q" horiz-adv-x="1243" d="M111 336q0 135 47 258q80 201 297 317q173 93 339 93h17q12 12 35 28q29 25 78 25q47 0 94 -40t47 -89q0 -25 -26.5 -66t-57.5 -61v-1370q41 41 96 106q-4 16 -4 33q0 53 40 95t89 42q61 0 98 -49q31 -39 31 -80q0 -39 -22 -76q-29 -45 -74 -51q-12 2 -28 2q-26 0 -62 -6 q-70 -63 -215 -172q-12 23 -35 135q-21 111 -21 188v13v940q-59 -100 -116 -199q-100 -164 -189 -254q-121 -125 -225 -125q-131 0 -192 144q-41 96 -41 219zM348 63q78 0 297 357q209 336 209 387q0 12 -27 43q-37 41 -39 45q-12 4 -45 4q-252 0 -387 -203 q-108 -166 -108 -403q0 -229 100 -230z" />
<glyph unicode="r" horiz-adv-x="880" d="M92 51q0 90 92 131v666q-57 57 -63 65q-20 27 -21 64q0 49 41 87t88 38q53 0 91 -40t38 -85q0 -51 -65 -121l8 -94q82 61 201 135q190 123 246 123q4 0 40 -14q12 -25 60.5 -66t64 -66.5t15.5 -66.5q0 -51 -38 -89t-87 -38q-76 0 -105 68q-18 63 -34 124 q-227 -123 -371 -245v-465q55 -61 55 -107q0 -61 -47 -98q-39 -31 -80 -31q-49 0 -89 41t-40 84z" />
<glyph unicode="s" horiz-adv-x="1083" d="M63 166q0 53 37 90t84 37q57 0 96 -43t39 -98q0 -25 -8 -46q49 -27 84 -30q10 -2 78 -2q147 0 301 116q172 131 172 302q0 122 -123 122h-2q-88 0 -308 -100t-265 -100q-70 0 -115 94q-33 70 -33 117q0 289 619 424q12 2 20.5 18t18.5 33.5t43 32t57 14.5q53 0 92 -47 q33 -41 33 -80q0 -51 -37 -90t-88 -39q-49 0 -85 31.5t-44 31.5q-129 0 -305 -92q-213 -113 -213 -260q0 -96 88 -96q37 0 246 114.5t309 114.5h2q201 0 201 -243q0 -219 -223 -379q-195 -139 -383 -140q-59 0 -129 21q-53 20 -107 39q-35 2 -102 24q-49 31 -50 109z" />
<glyph unicode="t" horiz-adv-x="1056" d="M-63 954q0 57 47 97q42 32 83 32h3q43 0 81.5 -36.5t36.5 -36.5q35 0 107 32v127q-49 41 -59 54q-25 29 -25 67q0 45 31 84q35 49 94 49q55 0 94 -38.5t39 -90.5q0 -59 -66 -116v-115q6 -6 23 -6q59 0 293 47q37 55 53 70q30 28 75 28h3q53 0 88 -40t35 -89 q0 -55 -36 -91t-87 -36q-47 0 -85 32t-36 32q-6 0 -127 -19q-129 -20 -194 -26v-877q2 -4 2 -6h2h10q61 0 219 100q152 96 203 162q-37 53 -37 92q0 49 40 91t89 42q57 0 96 -49q33 -41 33 -84q0 -74 -68 -112q-20 -2 -53 -15q-127 -102 -252 -207q-178 -129 -293 -129 q-92 0 -106 86l-6 887q-94 -14 -125 -72q-25 -49 -92 -49q-51 0 -92 40t-41 89z" />
<glyph unicode="u" horiz-adv-x="1089" d="M158 1053q39 39 90 39q61 0 98 -48q31 -39 31 -86q0 -74 -84 -120v-697q0 -55 162 -86q158 0 391 199v594q-66 53 -66 117q0 61 49 98q39 29 80 29q61 0 99 -48q30 -39 30 -86q0 -74 -84 -120v-676q43 -41 52 -64q4 -8 4 -43q0 -118 -127 -118h-2q-86 0 -133 137 q-68 -45 -167.5 -78t-172.5 -33q-82 0 -148 49q-76 55 -76 150v686q-65 52 -65 115q0 51 39 90z" />
<glyph unicode="v" horiz-adv-x="1011" d="M-18 958q0 59 49 95q38 30 77 30h3q53 0 91 -37.5t38 -87.5q0 -35 -19 -57q-35 -47 -47 -70l217 -647q31 61 383 703q-20 43 -20 84q0 57 34.5 94t92.5 37q129 0 129 -129q0 -72 -58 -107q-10 -6 -40.5 -8t-41.5 -14q-104 -160 -239 -414l-230 -430q-4 -1 -8 -1 q-25 0 -41 32q-61 113 -139 364q-63 209 -125 416q-6 20 -57 45q-18 8 -33.5 43t-15.5 59z" />
<glyph unicode="w" horiz-adv-x="1363" d="M-8 983q0 49 38 88t89 39q63 0 98 -47q31 -39 31 -86q0 -8 -55 -119l90 -612q-2 0 14 -17l254 574q-55 51 -55 110q0 51 38.5 88t90.5 37q59 0 94 -37.5t35 -87.5q0 -29 -37 -102l151 -608l297 622q-37 61 -37 103q0 61 52 98q39 31 77 31q57 0 97 -47q32 -41 32 -82 q0 -55 -38 -82q-76 -51 -80 -55.5t-72 -146.5t-137 -286q-92 -193 -117 -309q-4 -20 -20 -41q-22 -26 -43 -26h-2q-12 0 -25 12q-20 16 -23 16q-70 301 -200 762q-86 -201 -174 -401q-96 -227 -127 -348q-8 -31 -43 -31q12 0 -52 12q-43 281 -133 836q0 10 -14 20 q-94 43 -94 123z" />
<glyph unicode="x" horiz-adv-x="1005" d="M-63 111q0 70 59 104q45 25 108 25q86 117 263 352q-66 59 -160 178q-61 78 -123 156q-14 2 -45 14q-47 23 -64 53q-12 25 -12 58q0 53 39 89t90 36q59 0 94 -36t35 -89q0 -10 -18.5 -49t-18.5 -52q0 -41 117 -155q86 -82 143 -125q61 72 261 317q-16 39 -17 74 q0 59 40 96t89 37q61 0 98 -49q31 -37 31 -80q0 -41 -2 -45q-8 -33 -55 -62q-10 -6 -49 -9t-52 -15q-63 -55 -147 -160q-68 -86 -135 -172l182 -182q51 -72 164 -207q20 -2 63 -25q45 -37 54 -59q4 -8 4 -47q0 -59 -39 -93t-84 -34q-57 0 -92 37t-35 90q0 45 27 86 q-37 76 -126 180.5t-178 175.5q-90 -113 -260 -336q8 -20 9 -49q0 -57 -31 -104q-37 -53 -94 -53q-51 0 -95 49q-39 43 -38 80z" />
<glyph unicode="y" horiz-adv-x="1087" d="M-92 -240q0 61 49 101q38 28 77 28h3q61 0 98 -49q31 -39 31 -80q0 -45 -47 -104q72 -41 133 -41q127 0 213 147q67 117 67 217q0 21 -159 318q-174 322 -299 518q-4 8 -31 9t-31 5q-75 35 -75 115q0 63 47 100q39 29 79 29q39 0 79 -27.5t46 -66.5q4 -16 -6 -47t-10 -43 q0 -10 4 -19q74 -164 197 -381q109 -190 219 -378q66 186 133 372q78 223 117 377q2 10 -12 56q-12 35 -12 59q0 6 1 12q8 39 55 70q40 26 70 26h2q49 0 88 -41t39 -84q0 -55 -37 -92q-10 -8 -48 -21.5t-50 -33.5q-20 -35 -39 -100l-31 -111q-96 -291 -303 -864 q-41 -104 -137 -162q-86 -51 -184 -51q-104 0 -224 108q-20 4 -55 23q-57 55 -57 106z" />
<glyph unicode="z" horiz-adv-x="1007" d="M-8 946q0 47 28 88q37 49 95 49q74 0 131 -92h592q14 16 26 35q20 20 41 21q12 0 31.5 -26t17.5 -32l-716 -897h510q27 33 55 66q22 26 70 26h4q51 0 87.5 -39t36.5 -90q0 -129 -124 -129q-68 0 -121 74h-613q-12 0 -28.5 -9t-26.5 -9q-29 0 -61 32l745 883h-536 q-29 -29 -57.5 -54.5t-63.5 -25.5q-51 0 -87 40t-36 89z" />
<glyph unicode="{" horiz-adv-x="847" d="M-63 559q0 53 47 92q41 37 79 37q27 0 74 -37t51 -37q43 0 114 50.5t89 95.5q41 92 41 137v365q0 10 9.5 41.5t11.5 42.5q6 43 64 114.5t110 102.5q23 12 55 77q8 16 42 33t60 17q55 0 90 -38t35 -91q0 -57 -35.5 -93t-89.5 -36q-66 0 -100 47q-39 -20 -59 -37 q-39 -29 -54 -62q-23 -53 -36 -137q-10 -180 -23 -362q-27 -223 -172 -326q147 -145 147 -385l-36 -436q0 -172 184 -176q53 131 141 131q51 0 87 -39t36 -90q0 -59 -39 -94t-84 -35q-43 0 -67.5 29.5t-53.5 31.5q-184 8 -247 66q-59 51 -60 190l37 463q0 82 -12 133 q-18 72 -68 102q-78 49 -121 50q-2 0 -37.5 -32t-83.5 -32q-59 0 -98 49q-29 39 -28 78z" />
<glyph unicode="|" horiz-adv-x="405" d="M92 8q0 82 92 127v1301q-66 63 -65 116q0 47 40 87t93 40t92 -47q33 -41 33 -80q0 -86 -103 -137v-1280q74 -66 74 -131q0 -55 -39 -89t-84 -34q-55 0 -94 38t-39 89z" />
<glyph unicode="}" horiz-adv-x="829" d="M-100 -469q0 61 35.5 95t87.5 34q12 0 64 -31.5t65 -31.5q45 0 92 59q43 51 55 102q23 88 23 232v63q0 154 28 238q41 125 164 219q-135 145 -141 358q2 178 -8 531q-4 59 -40 92t-77 33q-35 0 -51 -33l-27 -61q-25 -35 -88 -35q-61 0 -98 49q-29 39 -29 80q0 49 40 89 t83 40q8 0 43 -22.5t57 -20.5q143 8 225 -111q66 -94 66 -217v-534q0 -49 45 -111q51 -68 111 -68q6 0 48 22.5t75 22.5q59 0 91.5 -42t32.5 -85q0 -53 -37.5 -91t-86.5 -38q-41 0 -94.5 41t-47.5 41q-76 0 -135 -112q-41 -78 -47 -121q-8 -135 -16 -268q-14 -168 -54 -267 q-27 -66 -96 -110q-51 -31 -104 -60q-12 -23 -45 -67q-31 -31 -86 -31t-89 39t-34 88z" />
<glyph unicode="~" horiz-adv-x="1267" d="M92 418q0 90 160 127q39 33 119 84q61 33 121 33q88 0 205.5 -129.5t211.5 -129.5q49 0 93.5 43t44.5 82q0 10 -23 52.5t-23 52.5q0 51 39 90t88 39q61 0 101 -47q28 -39 28 -82q0 -55 -83 -121q-37 -45 -119 -133q-57 -49 -160 -49q-106 0 -193 63q-29 18 -118 115 q-61 61 -107 61q-27 0 -75 -30.5t-60 -57.5q6 -25 6 -49q0 -61 -36 -100t-91 -39q-57 0 -93 39t-36 86z" />
<glyph unicode="&#xa2;" horiz-adv-x="1079" d="M100 651q0 184 101 334q113 172 315 227q16 20 16 78q0 76 -36.5 102.5t-36.5 86.5q0 51 39 89t90 38q61 0 98 -47q31 -39 31 -80q0 -63 -94 -136v-86q100 29 153 29q10 0 58.5 -14.5t60.5 -14.5q10 0 18.5 5.5t22.5 5.5q63 0 96 -49q25 -37 25 -84q0 -133 -129 -134 q-137 0 -119 187q-6 6 -33 6q-53 0 -153 -35v-774q137 53 227 117q-4 27 -4 49q0 68 41 111q37 37 86 36q61 0 98 -49q31 -39 31 -84q0 -125 -133 -125q-10 0 -22.5 5.5t-22.5 5.5q-14 0 -121 -72q-133 -86 -178 -111v-252q37 -23 64.5 -61.5t27.5 -69.5q0 -55 -39 -94 t-90 -39q-57 0 -96 49q-33 41 -33 84q0 55 73 121v244q-16 6 -45 2l-43 -4q-176 0 -266 131q-78 109 -78 272zM193 684q0 -121 53 -213q72 -123 209 -123q55 0 75 12v768q-182 -84 -268 -219q-70 -106 -69 -225z" />
<glyph unicode="&#xa4;" horiz-adv-x="534" />
<glyph unicode="&#xa8;" horiz-adv-x="761" d="M111 1638q0 55 30 105q35 57 92 57q47 0 72 -38t25 -87q0 -61 -21 -104q-29 -55 -84 -55q-53 0 -83.5 36.5t-30.5 85.5zM596 1638q0 55 31 105q37 57 94 57q96 0 96 -125q0 -61 -22 -104q-29 -55 -84 -55q-51 0 -83 36.5t-32 85.5z" />
<glyph unicode="&#xa9;" horiz-adv-x="1693" d="M193 524q0 367 217 650q240 313 618 313q10 0 43 -4t45 -4l43 31q43 32 80 32q121 0 131 -149q150 -76 229 -236q72 -139 72 -299q0 -340 -231 -627q-254 -313 -619 -313q-295 0 -461.5 159t-166.5 447zM274 528q0 -236 158 -386t393 -150q326 0 559 287q213 262 213 561 q0 301 -270 483q-59 -37 -92 -37q-43 0 -80 34t-49 81l-96 12q-328 0 -549 -323q-186 -274 -187 -562zM496 555q0 227 223 399q201 156 401 156q211 0 211 -133q0 -51 -37 -87t-88 -36q-55 0 -86 43q-29 37 -53 131q-217 -59 -344 -174q-145 -127 -145 -299q0 -215 206 -215 q158 0 332 199q-23 43 -22 88q0 57 34.5 96t92.5 39q57 0 96 -47q33 -41 33 -86q0 -53 -39 -84q-8 -6 -92 -51q-59 -51 -193 -142q-150 -86 -291 -86q-133 0 -194 107q-45 78 -45 182z" />
<glyph unicode="&#xad;" d="M63 614q0 49 41 89t84 40q45 0 83 -31.5t55 -31.5q127 0 174 35q12 8 47 67q20 35 82 35q55 0 92 -47q33 -39 33 -86q0 -55 -40 -90t-89 -35q-43 0 -77 27.5t-67 27.5q-53 0 -153 -20q-55 -106 -140 -107q-53 0 -90 48q-35 41 -35 79z" />
<glyph unicode="&#xae;" horiz-adv-x="1691" d="M174 559q0 356 223 629q250 305 654 311q14 0 46.5 21.5t59.5 21.5q74 0 107 -47q6 -29 30 -63q199 -88 301 -271q84 -154 84 -336q0 -350 -249 -620q-256 -279 -609 -279q-295 0 -471 169t-176 464zM258 569q0 -236 148 -401q160 -176 415 -176q309 0 545 276 q223 262 223 563q0 311 -309 519q-59 -63 -123 -64q-49 0 -88 40t-43 95h-121q-51 2 -194 -61q-217 -94 -346 -365q-106 -225 -107 -426zM551 258q0 41 30.5 72.5t61.5 60.5v494q-84 66 -84 125q0 53 43 92q37 37 82 37q37 0 78 -28t45 -28q12 0 47 15.5t49 17.5 q98 23 144 23q166 0 165 -125q0 -211 -450 -387q39 -51 122 -116t156 -97q49 145 144 145q51 0 95 -39t44 -88q0 -51 -46 -90t-93 -39q-8 0 -43 17.5t-51 15.5q-18 -2 -35 -2q-82 0 -170 72q-6 6 -156 153q-4 -4 -4 -31q0 -106 12 -145q2 -12 22.5 -30.5t24.5 -24.5 q23 -29 23 -70q0 -61 -49 -100q-39 -29 -78 -29q-61 0 -98 47q-31 39 -31 82zM737 680q383 200 383 311q0 74 -106 74q-100 0 -185 -49q-10 -6 -18 -19q-4 -43 -33 -71q-18 -14 -41 -39v-207z" />
<glyph unicode="&#xb4;" horiz-adv-x="591" d="M-8 1239q0 49 40 89t83 40q8 0 90 -29q14 14 196 236q-25 37 -24 80q0 55 36 95t93 40q61 0 98 -47q29 -39 29 -82q0 -39 -7.5 -54.5t-47.5 -52.5q-10 -8 -46 -11t-47 -13q-90 -74 -227 -252q-6 -8 -10 -46t-12 -54q-39 -68 -117 -68q-61 0 -99 49q-29 39 -28 80z" />
<glyph unicode="&#xd7;" horiz-adv-x="1232" d="M229 899q0 55 37 92t88 37t84 -33q16 -35 49 -88q66 -78 252 -264q80 76 222 225q-4 23 -5 43q0 61 37 98.5t90 37.5q61 0 99 -48q30 -41 30 -86q0 -57 -47 -94q-39 -29 -82 -28q-33 0 -49 8l-235 -226q131 -139 227 -215q23 0 62.5 -4t66.5 -47q20 -35 21 -74 q0 -55 -36 -88.5t-89 -33.5q-57 0 -93 35.5t-36 91.5q0 25 8 51q-92 109 -209 207q-37 -27 -115 -101q-86 -82 -94 -104q2 -23 -2 -68q-10 -43 -55 -71q-37 -23 -70 -23q-61 0 -98 47q-29 39 -29 82q0 61 49 98q39 29 78 29q37 0 64 -18l202 188l-229 236q-41 -18 -68 -19 q-57 0 -91 39t-34 88z" />
<glyph unicode="&#x2000;" horiz-adv-x="900" />
<glyph unicode="&#x2001;" horiz-adv-x="1800" />
<glyph unicode="&#x2002;" horiz-adv-x="900" />
<glyph unicode="&#x2003;" horiz-adv-x="1800" />
<glyph unicode="&#x2004;" horiz-adv-x="600" />
<glyph unicode="&#x2005;" horiz-adv-x="450" />
<glyph unicode="&#x2006;" horiz-adv-x="300" />
<glyph unicode="&#x2007;" horiz-adv-x="300" />
<glyph unicode="&#x2008;" horiz-adv-x="225" />
<glyph unicode="&#x2009;" horiz-adv-x="360" />
<glyph unicode="&#x200a;" horiz-adv-x="100" />
<glyph unicode="&#x2010;" d="M63 614q0 49 41 89t84 40q45 0 83 -31.5t55 -31.5q127 0 174 35q12 8 47 67q20 35 82 35q55 0 92 -47q33 -39 33 -86q0 -55 -40 -90t-89 -35q-43 0 -77 27.5t-67 27.5q-53 0 -153 -20q-55 -106 -140 -107q-53 0 -90 48q-35 41 -35 79z" />
<glyph unicode="&#x2011;" d="M63 614q0 49 41 89t84 40q45 0 83 -31.5t55 -31.5q127 0 174 35q12 8 47 67q20 35 82 35q55 0 92 -47q33 -39 33 -86q0 -55 -40 -90t-89 -35q-43 0 -77 27.5t-67 27.5q-53 0 -153 -20q-55 -106 -140 -107q-53 0 -90 48q-35 41 -35 79z" />
<glyph unicode="&#x2012;" d="M63 614q0 49 41 89t84 40q45 0 83 -31.5t55 -31.5q127 0 174 35q12 8 47 67q20 35 82 35q55 0 92 -47q33 -39 33 -86q0 -55 -40 -90t-89 -35q-43 0 -77 27.5t-67 27.5q-53 0 -153 -20q-55 -106 -140 -107q-53 0 -90 48q-35 41 -35 79z" />
<glyph unicode="&#x2013;" horiz-adv-x="1084" d="M63 614q0 49 61 89t124 40q67 0 123.5 -31.5t81.5 -31.5q188 0 258 35q17 8 69 67q30 35 122 35q81 0 136 -47q49 -39 49 -86q0 -55 -59.5 -90t-131.5 -35q-64 0 -114.5 27.5t-99.5 27.5q-78 0 -226 -20q-82 -106 -208 -107q-78 0 -133 48q-52 41 -52 79z" />
<glyph unicode="&#x2014;" horiz-adv-x="2108" d="M63 614q0 49 121.5 89t248.5 40q134 0 246.5 -31.5t162.5 -31.5q377 0 516 35q36 8 139 67q60 35 244 35q163 0 272 -47q98 -39 98 -86q0 -55 -118.5 -90t-263.5 -35q-128 0 -228.5 27.5t-198.5 27.5q-157 0 -454 -20q-163 -106 -415 -107q-157 0 -266 48 q-104 41 -104 79z" />
<glyph unicode="&#x2022;" horiz-adv-x="827" d="M166 743q0 158 96 267.5t256 109.5q139 0 217 -112q64 -92 64 -217q0 -199 -131 -293q-104 -76 -283 -76q-119 0 -178 131q-41 92 -41 190z" />
<glyph unicode="&#x202f;" horiz-adv-x="360" />
<glyph unicode="&#x205f;" horiz-adv-x="450" />
<glyph unicode="&#x2122;" horiz-adv-x="1787" d="M-63 1460q0 59 35.5 94t86.5 35q12 0 74 -27.5t74 -27.5q123 0 309 37q45 119 131 119q113 0 137 -148q8 49 46 80t83 31q55 0 89 -42t34 -98q0 -37 -16 -67l215 -537q260 477 260 543q0 10 -10 47q-8 31 -4 49q10 43 51 72q39 23 80 22q53 0 88 -44t35 -82 q0 -39 -27 -77t-66 -50v-492q93 -49 93 -125q0 -51 -38 -90t-85 -39q-55 0 -94 38t-39 91q0 31 26.5 74t65.5 51l-6 479q-78 -150 -232 -454q-6 -12 13 -62q4 -12 4 -26q0 -72 -66 -115q-20 -12 -63 -12q-51 0 -90 39.5t-39 84.5q0 27 36 101l-176 381v-410q2 -10 25.5 -49 t23.5 -51q0 -55 -39.5 -89t-89.5 -34q-59 0 -94 37t-35 86t27 76q8 8 94 65v453q-68 35 -88 145q-39 -111 -125 -110q-35 0 -71 22l-10 16q-11 17 -23 17h-121v-561q43 -16 74.5 -54t31.5 -77q0 -55 -37.5 -90t-91.5 -35q-59 0 -94 37.5t-35 87.5q0 55 76 120v529 q-8 6 -33 6q-111 0 -156.5 -59.5t-101.5 -59.5q-55 0 -88.5 38t-33.5 91z" />
<glyph unicode="&#x25fc;" horiz-adv-x="1198" d="M0 0v1198h1198v-1198h-1198z" />
</font>
</defs>
</svg>
